<?xml version="1.0" encoding="utf-8"?>
<!-- Generator: Adobe Illustrator 18.1.1, SVG Export Plug-In . SVG Version: 6.00 Build 0)  -->
<svg version="1.1" id="Layer_1" xmlns="http://www.w3.org/2000/svg" xmlns:xlink="http://www.w3.org/1999/xlink" x="0px" y="0px"
	 width="160px" height="160px" viewBox="0 0 160 160" enable-background="new 0 0 160 160" xml:space="preserve">
<g>
	<path fill="#CF4646" d="M84.7,65c5.9,4.6,10.2,3.6,11.9,2.9c-0.1-3.6-0.7-6-0.8-6.4l-8.2-21.8c-0.8-2.3-2.7-5.2-3-5.6
		c-1.3-1.6-1.5-3.5-1.5-4.6l0-1.6l1.4-0.2l-0.1-0.3l0-0.3l-0.2-0.3v-0.5l-0.8-0.9l0.8-1.1c0,0,0,0,0-0.1l0-0.1c0,0-0.1-0.1-0.1-0.2
		l-0.4-0.3l-0.1-0.1c-0.2-0.1-0.5-0.2-1.3-0.2c-1-0.1-2-0.1-2.1-0.1h-0.7c0,0-1,0-2.1,0.1c-0.7,0.1-1.1,0.2-1.3,0.2l-0.1,0.1
		l-0.4,0.3c-0.1,0.1-0.1,0.1-0.1,0.1l0,0.1c0,0,0,0.1,0,0.1l0.8,1.1l-0.8,0.9l0,0.6l-0.2,0.2l0,0.3l-0.1,0.4l0,0l1.4,0.2l0,1.6
		c0,1-0.1,2.9-1.5,4.6c-0.3,0.4-2.2,3.3-3,5.6l0,0.1l-8,21.2C68.5,60.2,77.5,59.4,84.7,65z"/>
	<path fill="#CF4646" d="M82.5,69c-7.2-5.6-16.7-4.6-18.8-4c-0.1,1-0.2,2.1-0.2,3.4c-0.1,4.4,0,56,0,57.9c0.2,2.8,1.1,7.7,3,9.2
		c0.2,0.1,2.7,1.4,11.2,1.4h4.9c8.1,0,10.7-1.2,11.1-1.4l0.1-0.1l0,0.1c0,0,0,0,0,0c2.1-1.7,2.9-7.3,3-9.2c0-1.7,0.1-35.2,0-47.9
		C87.7,78.3,86.7,72.3,82.5,69z"/>
	<path fill="#CF4646" d="M80,0C35.8,0,0,35.8,0,80s35.8,80,80,80s80-35.8,80-80S124.2,0,80,0z M100.3,126.3L100.3,126.3
		c-0.1,1-0.6,9-4.4,12.1c-0.7,0.6-3.6,2.2-13.5,2.2h-4.9c-9.9,0-12.8-1.6-13.5-2.2c-3.8-3.1-4.3-11.1-4.4-12l0-0.1
		c0-2.2-0.1-53.6,0-58.1c0.1-4.7,0.9-7.6,1-7.8l0.1-0.2l8.2-21.8c1-3,3.4-6.5,3.5-6.6l0.1-0.1c0.3-0.3,0.4-0.7,0.5-1.1l-0.4-0.4
		c-0.8-0.9-1.1-2.1-0.9-3.3c0-0.4,0.1-0.8,0.2-1.1c0-0.2,0-0.4,0.1-0.6c-0.1-0.5-0.1-1-0.1-1.3c0-1,0.5-1.8,1.2-2.6
		c0.9-1.4,2.9-1.6,3.9-1.7c1.2-0.1,2.3-0.1,2.5-0.1h0.7c0.1,0,1.3,0,2.5,0.1c1,0.1,3,0.3,3.9,1.7c0.8,0.7,1.2,1.6,1.2,2.6
		c0,0.3,0,0.8-0.1,1.4c0,0.2,0.1,0.4,0.1,0.6c0.1,0.3,0.2,0.7,0.2,1.1c0.3,1.2,0,2.4-0.9,3.3l-0.4,0.4c0.1,0.4,0.2,0.8,0.5,1.1
		l0.1,0.1c0.1,0.1,2.5,3.6,3.5,6.6l8.3,21.9l0,0.1c0,0.1,0.8,3.1,1,7.8C100.5,72.6,100.4,124.1,100.3,126.3z"/>
</g>
</svg>
